<?xml version="1.0" encoding="utf-8"?>
<!-- Generator: Adobe Illustrator 23.0.3, SVG Export Plug-In . SVG Version: 6.00 Build 0)  -->
<svg version="1.1" id="Layer_1" xmlns="http://www.w3.org/2000/svg" xmlns:xlink="http://www.w3.org/1999/xlink" x="0px" y="0px"
	 viewBox="0 0 406 204" style="enable-background:new 0 0 406 204;" xml:space="preserve">
<style type="text/css">
	.st0{fill:#FFFFFF;}
</style>
<g>
	
		<image style="overflow:visible;opacity:0.75;" width="270" height="208" xlink:href="4265330.png"  transform="matrix(1 0 0 1 0 -3)">
	</image>
	<g>
		<g>
			<path class="st0" d="M84.5,128.2c-2.8,0-5.1,1.1-7,3.2c-1.8,2.1-2.8,4.8-2.8,7.9c0,3.4,0.9,6.1,2.7,8.2c1.8,2.1,4.2,3.2,7,3.2
				c3,0,5.4-1,7.3-3.1c1.8-2.1,2.8-4.8,2.8-8.1s-0.9-6-2.8-8.1C89.8,129.3,87.4,128.2,84.5,128.2z"/>
			<path class="st0" d="M176.1,0L176.1,0L3,180.4c0.3,0.1,3.2,1.5,10.8-2.1l0,0c26.7-11.9,68.9-0.1,103.5,10.8
				c26.6,8.4,48.2,13.2,45.5,10c-11.1-13.2-16.3-30.6-17.9-49.7l-0.4-18.6C146.3,76.6,171,16.1,176.5,1C176.9-0.1,176.1-0.1,176.1,0
				z M102,156.9h-8.1v-3.7c-3.3,3.1-6.9,4.7-10.7,4.7c-4.8,0-8.8-1.7-12-5.2c-3.1-3.6-4.7-8-4.7-13.4c0-5.2,1.6-9.6,4.7-13.1
				c3.1-3.5,7.1-5.2,11.8-5.2c4.1,0,7.7,1.7,11,5v-4.1h8V156.9z M126.8,130.4c-1.5-1.1-3-1.7-4.5-1.7c-4.4,0-6.6,3.3-6.6,10v18.1
				h-8.1v-35h8.1v3.1c1.5-1.6,2.8-2.6,4-3.2s2.6-0.9,4.2-0.9c2.1,0,4.4,0.7,6.7,2.1L126.8,130.4z M139.3,156.9h-8.1v-35h8.1V156.9z
				 M139,111.1c-1,1-2.2,1.5-3.7,1.5s-2.7-0.5-3.7-1.5s-1.5-2.3-1.5-3.8c0-1.4,0.5-2.6,1.5-3.7c1-1,2.3-1.5,3.7-1.5
				c1.5,0,2.7,0.5,3.7,1.5s1.5,2.2,1.5,3.7C140.5,108.8,140,110.1,139,111.1z"/>
			<path class="st0" d="M170.5,96.2h8.1v60.7h-8.1v-3.7c-3.2,3.1-6.8,4.7-10.8,4.7c-4.8,0-8.8-1.7-11.9-5.2c-3.1-3.6-4.7-8-4.7-13.4
				c0-5.2,1.6-9.6,4.7-13.1c3.1-3.5,7-5.3,11.7-5.3c4.1,0,7.8,1.7,11,5V96.2z M151.3,139.3c0,3.4,0.9,6.1,2.7,8.2
				c1.8,2.1,4.2,3.2,7,3.2c3,0,5.4-1,7.3-3.1c1.8-2.1,2.8-4.8,2.8-8.1s-0.9-6-2.8-8.1c-1.8-2.1-4.2-3.1-7.2-3.1
				c-2.8,0-5.1,1.1-7,3.2C152.2,133.5,151.3,136.1,151.3,139.3z"/>
			<path class="st0" d="M184.2,96.2h8.1v28.6c2.9-2.6,6-3.9,9.5-3.9c4,0,7.1,1.3,9.5,3.8c2,2.2,3,5.8,3,10.7v21.4h-8.1v-20.7
				c0-2.8-0.5-4.8-1.5-6.1s-2.6-1.9-4.8-1.9c-2.8,0-4.8,0.9-6,2.6c-1.1,1.8-1.7,4.8-1.7,9.1v16.9h-8.1V96.2H184.2z"/>
			<path class="st0" d="M218.4,107.3c0-1.4,0.5-2.6,1.5-3.7c1-1,2.3-1.5,3.7-1.5c1.5,0,2.7,0.5,3.7,1.5s1.5,2.2,1.5,3.7
				s-0.5,2.7-1.5,3.7s-2.2,1.5-3.7,1.5s-2.7-0.5-3.7-1.5C218.9,110.1,218.4,108.8,218.4,107.3z M227.7,121.9v35h-8.1v-35
				C219.6,121.9,227.7,121.9,227.7,121.9z"/>
			<path class="st0" d="M258.9,121.9h8.1v35h-8.1v-3.7c-3.3,3.1-6.9,4.7-10.7,4.7c-4.8,0-8.8-1.7-12-5.2c-3.1-3.6-4.7-8-4.7-13.4
				c0-5.2,1.6-9.6,4.7-13.1c3.1-3.5,7.1-5.2,11.8-5.2c4.1,0,7.7,1.7,11,5v-4.1H258.9z M239.7,139.3c0,3.4,0.9,6.1,2.7,8.2
				c1.8,2.1,4.2,3.2,7,3.2c3,0,5.4-1,7.3-3.1c1.8-2.1,2.8-4.8,2.8-8.1s-0.9-6-2.8-8.1c-1.8-2.1-4.2-3.1-7.2-3.1
				c-2.8,0-5.1,1.1-7,3.2C240.6,133.5,239.7,136.1,239.7,139.3z"/>
		</g>
	</g>
</g>
<g>
	
		<image style="overflow:visible;opacity:0.75;" width="127" height="63" xlink:href="4265331.png"  transform="matrix(1 0 0 1 279 99)">
	</image>
	<g>
		<g>
			<path class="st0" d="M282.1,101.5h21.3c3.8,0,7.3,0.8,10.6,2.3c3.3,1.5,6.2,3.5,8.7,6.1c2.5,2.5,4.4,5.5,5.8,8.8
				c1.4,3.4,2.1,6.9,2.1,10.6c0,3.6-0.7,7.1-2.1,10.5s-3.3,6.3-5.8,8.9c-2.5,2.6-5.4,4.6-8.7,6.1c-3.3,1.5-6.9,2.3-10.7,2.3H282
				v-55.6H282.1z M296.6,144.8h3.3c2.5,0,4.7-0.4,6.7-1.2s3.6-1.9,5-3.2c1.3-1.4,2.4-3,3.1-4.9s1.1-4,1.1-6.2s-0.4-4.3-1.1-6.2
				c-0.7-1.9-1.8-3.6-3.1-4.9c-1.3-1.4-3-2.5-5-3.2c-2-0.8-4.2-1.2-6.6-1.2h-3.3v31H296.6z"/>
			<path class="st0" d="M373.8,157h-17.9l-13.8-21.3V157h-14.4v-55.5h22.4c3.1,0,5.8,0.5,8.1,1.4c2.3,0.9,4.2,2.1,5.7,3.7
				s2.6,3.4,3.4,5.4c0.8,2.1,1.1,4.3,1.1,6.6c0,4.2-1,7.6-3.1,10.3c-2,2.6-5,4.4-9,5.3L373.8,157z M342.1,126.3h2.7
				c2.8,0,5-0.6,6.5-1.8c1.5-1.2,2.3-2.9,2.3-5.1s-0.8-3.9-2.3-5.1s-3.7-1.8-6.5-1.8h-2.7V126.3z"/>
			<path class="st0" d="M402.2,113.7H385v9.3h16.2v12.2H385v9.6h17.1V157h-31.6v-55.5h31.6v12.2H402.2z"/>
		</g>
	</g>
</g>
</svg>
